<svg width="31" height="27" viewBox="0 0 31 27" fill="none" xmlns="http://www.w3.org/2000/svg">
<path d="M15.9587 0.218211C15.7773 0.076798 15.5539 0 15.3239 0C15.0939 0 14.8705 0.076798 14.6891 0.218211L0 11.672L1.2706 13.2789L3.06662 11.8785V24.5324C3.0677 25.0743 3.28344 25.5937 3.6666 25.9768C4.04977 26.36 4.56915 26.5757 5.11103 26.5768H25.5551C26.097 26.5757 26.6164 26.36 26.9996 25.9768C27.3827 25.5937 27.5985 25.0743 27.5996 24.5324V11.8877L29.3956 13.2881L30.6662 11.6812L15.9587 0.218211ZM17.3775 24.5324H13.2887V16.3547H17.3775V24.5324ZM19.4219 24.5324V16.3547C19.4214 15.8127 19.2058 15.293 18.8225 14.9097C18.4392 14.5264 17.9195 14.3109 17.3775 14.3103H13.2887C12.7466 14.3109 12.2269 14.5264 11.8437 14.9097C11.4604 15.293 11.2448 15.8127 11.2443 16.3547V24.5324H5.11103V10.2849L15.3331 2.32191L25.5551 10.2951V24.5324H19.4219Z" fill="#F13A3B"/>
</svg>
