<svg width="25" height="27" viewBox="0 0 25 27" fill="none" xmlns="http://www.w3.org/2000/svg">
<path d="M17.085 11.39C15.7508 11.3905 14.4406 11.7453 13.2884 12.418V6.64417C13.2884 4.88203 12.5884 3.19206 11.3423 1.94603C10.0963 0.700009 8.40633 0 6.64419 0C4.88204 0 3.19207 0.700009 1.94605 1.94603C0.700023 3.19206 1.35625e-05 4.88203 1.35362e-05 6.64417V19.9325C-0.00272211 21.2868 0.409256 22.6094 1.18055 23.7225C1.95185 24.8356 3.04548 25.6859 4.31439 26.159C5.5833 26.6321 6.96664 26.7053 8.27841 26.3689C9.59019 26.0324 10.7675 25.3023 11.652 24.2769C12.5261 25.1742 13.6086 25.8412 14.8031 26.2185C15.9976 26.5958 17.2669 26.6716 18.4978 26.4392C19.7287 26.2067 20.8829 25.6733 21.8576 24.8864C22.8322 24.0994 23.597 23.0835 24.0836 21.9293C24.5702 20.775 24.7636 19.5182 24.6466 18.2711C24.5295 17.0239 24.1056 15.8251 23.4126 14.7815C22.7196 13.738 21.7792 12.8822 20.6751 12.2904C19.5711 11.6986 18.3377 11.3893 17.085 11.39ZM6.64419 1.89834C7.9024 1.89984 9.10865 2.40033 9.99834 3.29002C10.888 4.17972 11.3885 5.38596 11.39 6.64417V12.3392H1.89835V6.64417C1.89986 5.38596 2.40035 4.17972 3.29004 3.29002C4.17973 2.40033 5.38598 1.89984 6.64419 1.89834ZM6.64419 24.6784C5.38598 24.6769 4.17973 24.1764 3.29004 23.2867C2.40035 22.397 1.89986 21.1907 1.89835 19.9325V14.2375H11.167C10.214 15.4181 9.63879 16.8583 9.51622 18.3705C9.39364 19.8828 9.72941 21.3968 10.4798 22.7155C10.0398 23.3212 9.46324 23.8147 8.79678 24.1557C8.13033 24.4968 7.39283 24.6759 6.64419 24.6784ZM17.085 24.6784C15.9587 24.6784 14.8576 24.3444 13.9211 23.7186C12.9845 23.0928 12.2546 22.2034 11.8235 21.1627C11.3925 20.1221 11.2797 18.977 11.4995 17.8723C11.7192 16.7676 12.2616 15.7528 13.0581 14.9564C13.8545 14.1599 14.8693 13.6175 15.974 13.3978C17.0787 13.178 18.2238 13.2908 19.2644 13.7219C20.305 14.1529 21.1945 14.8828 21.8203 15.8194C22.446 16.7559 22.78 17.857 22.78 18.9834C22.7783 20.4932 22.1777 21.9408 21.1101 23.0084C20.0424 24.076 18.5949 24.6766 17.085 24.6784Z" fill="black" fill-opacity="0.65"/>
<path d="M19.9328 18.0342H18.0345V16.1358H16.1361V18.0342H14.2378V19.9325H16.1361V21.8308H18.0345V19.9325H19.9328V18.0342Z" fill="black" fill-opacity="0.65"/>
</svg>
