<svg width="26" height="27" viewBox="0 0 26 27" fill="none" xmlns="http://www.w3.org/2000/svg">
<path d="M12.589 0C11.2058 0 9.85355 0.410185 8.70341 1.17868C7.55327 1.94718 6.65685 3.03948 6.1275 4.31745C5.59815 5.59542 5.45964 7.00165 5.7295 8.35834C5.99936 9.71502 6.66547 10.9612 7.64358 11.9393C8.6217 12.9174 9.86789 13.5835 11.2246 13.8534C12.5813 14.1233 13.9875 13.9848 15.2655 13.4554C16.5434 12.9261 17.6357 12.0296 18.4042 10.8795C19.1727 9.72936 19.5829 8.37716 19.5829 6.9939C19.5829 5.139 18.8461 3.36007 17.5344 2.04846C16.2228 0.736855 14.4439 0 12.589 0ZM12.589 11.1902C11.7591 11.1902 10.9477 10.9441 10.2577 10.483C9.56757 10.0219 9.02971 9.36655 8.7121 8.59977C8.39449 7.83298 8.31139 6.98924 8.47331 6.17523C8.63522 5.36122 9.03489 4.61351 9.62175 4.02664C10.2086 3.43977 10.9563 3.04011 11.7703 2.87819C12.5844 2.71627 13.4281 2.79938 14.1949 3.11699C14.9617 3.4346 15.617 3.97245 16.0781 4.66254C16.5392 5.35262 16.7854 6.16394 16.7854 6.9939C16.7854 8.10683 16.3432 9.17419 15.5563 9.96116C14.7693 10.7481 13.702 11.1902 12.589 11.1902ZM25.178 26.5768V25.178C25.178 22.5812 24.1464 20.0907 22.3102 18.2544C20.4739 16.4182 17.9834 15.3866 15.3866 15.3866H9.79146C7.1946 15.3866 4.7041 16.4182 2.86785 18.2544C1.0316 20.0907 0 22.5812 0 25.178V26.5768H2.79756V25.178C2.79756 23.3231 3.53441 21.5442 4.84602 20.2326C6.15763 18.921 7.93656 18.1841 9.79146 18.1841H15.3866C17.2415 18.1841 19.0204 18.921 20.332 20.2326C21.6436 21.5442 22.3805 23.3231 22.3805 25.178V26.5768H25.178Z" fill="black" fill-opacity="0.65"/>
</svg>
